<?xml version="1.0" encoding="UTF-8"?>
<svg version="1.1" xmlns="http://www.w3.org/2000/svg" width="50" height="50">
<path d="M0 0 C1.2219104 0.00607269 1.2219104 0.00607269 2.46850586 0.01226807 C3.30438232 0.01035461 4.14025879 0.00844116 5.00146484 0.00646973 C6.77010397 0.00510771 8.53875309 0.0088053 10.30737305 0.01715088 C13.02016579 0.02785031 15.7322963 0.01725631 18.44506836 0.00445557 C20.16121566 0.00577716 21.87736255 0.00833955 23.59350586 0.01226807 C24.40811279 0.0082196 25.22271973 0.00417114 26.06201172 0 C31.80108658 0.04797379 31.80108658 0.04797379 34.03100586 2.27789307 C34.23090813 5.12329449 34.31077562 7.8692709 34.29663086 10.71539307 C34.29950104 11.96920776 34.29950104 11.96920776 34.3024292 13.24835205 C34.30379121 15.01699118 34.30009362 16.78564029 34.29174805 18.55426025 C34.28104861 21.267053 34.29164262 23.9791835 34.30444336 26.69195557 C34.30312177 28.40810287 34.30055938 30.12424975 34.29663086 31.84039307 C34.30067932 32.655 34.30472778 33.46960693 34.30889893 34.30889893 C34.26092514 40.04797379 34.26092514 40.04797379 32.03100586 42.27789307 C29.18560444 42.47779534 26.43962802 42.55766282 23.59350586 42.54351807 C22.75762939 42.54543152 21.92175293 42.54734497 21.06054688 42.54931641 C19.29190775 42.55067842 17.52325863 42.54698083 15.75463867 42.53863525 C13.04184592 42.52793582 10.32971542 42.53852983 7.61694336 42.55133057 C5.90079606 42.55000897 4.18464917 42.54744659 2.46850586 42.54351807 C1.65389893 42.54756653 0.83929199 42.55161499 0 42.55578613 C-5.73907486 42.50781235 -5.73907486 42.50781235 -7.96899414 40.27789307 C-8.16889641 37.43249164 -8.2487639 34.68651523 -8.23461914 31.84039307 C-8.23653259 31.0045166 -8.23844604 30.16864014 -8.24041748 29.30743408 C-8.2417795 27.53879496 -8.2380819 25.77014584 -8.22973633 24.00152588 C-8.21903689 21.28873313 -8.2296309 18.57660263 -8.24243164 15.86383057 C-8.24111005 14.14768327 -8.23854766 12.43153638 -8.23461914 10.71539307 C-8.2386676 9.90078613 -8.24271606 9.0861792 -8.24688721 8.24688721 C-8.18797962 1.19980856 -7.04707865 0.05890759 0 0 Z M-4.89331055 3.35357666 C-6.57562075 6.36310209 -6.35856343 9.04310799 -6.36743164 12.46539307 C-6.37030182 13.16430664 -6.373172 13.86322021 -6.37612915 14.58331299 C-6.37816839 16.05931408 -6.37264817 17.53534228 -6.36010742 19.0112915 C-6.34404994 21.27004445 -6.35995884 23.52700825 -6.37915039 25.78570557 C-6.37716793 27.22060535 -6.3733242 28.65550402 -6.36743164 30.09039307 C-6.36404785 31.39621338 -6.36066406 32.70203369 -6.35717773 34.04742432 C-6.18975823 37.16934635 -6.18975823 37.16934635 -4.89331055 39.20220947 C-1.88378512 40.88451968 0.79622078 40.66746235 4.21850586 40.67633057 C5.26687622 40.68063583 5.26687622 40.68063583 6.33642578 40.68502808 C7.81242687 40.68706732 9.28845507 40.68154709 10.7644043 40.66900635 C13.02315724 40.65294886 15.28012104 40.66885777 17.53881836 40.68804932 C18.97371814 40.68606686 20.40861681 40.68222312 21.84350586 40.67633057 C23.80223633 40.67125488 23.80223633 40.67125488 25.80053711 40.66607666 C28.92245915 40.49865716 28.92245915 40.49865716 30.95532227 39.20220947 C32.63763247 36.19268404 32.42057515 33.51267815 32.42944336 30.09039307 C32.43374863 29.04202271 32.43374863 29.04202271 32.43814087 27.97247314 C32.44018011 26.49647205 32.43465989 25.02044385 32.42211914 23.54449463 C32.40606166 21.28574169 32.42197056 19.02877789 32.44116211 16.77008057 C32.43917965 15.33518079 32.43533592 13.90028212 32.42944336 12.46539307 C32.42605957 11.15957275 32.42267578 9.85375244 32.41918945 8.50836182 C32.25176995 5.38643978 32.25176995 5.38643978 30.95532227 3.35357666 C27.94579683 1.67126645 25.26579094 1.88832378 21.84350586 1.87945557 C21.14459229 1.87658539 20.44567871 1.87371521 19.72558594 1.87075806 C18.24958485 1.86871881 16.77355665 1.87423904 15.29760742 1.88677979 C13.03885448 1.90283727 10.78189068 1.88692836 8.52319336 1.86773682 C7.08829358 1.86971928 5.65339491 1.87356301 4.21850586 1.87945557 C2.91268555 1.88283936 1.60686523 1.88622314 0.26147461 1.88970947 C-2.86044743 2.05712898 -2.86044743 2.05712898 -4.89331055 3.35357666 Z " fill="#FFFFFF" transform="translate(11.968994140625,3.72210693359375)"/>
<path d="M0 0 C0.66 0 1.32 0 2 0 C2 3.63 2 7.26 2 11 C5.63 11 9.26 11 13 11 C13 11.66 13 12.32 13 13 C9.37 13 5.74 13 2 13 C2 16.63 2 20.26 2 24 C1.34 24 0.68 24 0 24 C0 20.37 0 16.74 0 13 C-3.63 13 -7.26 13 -11 13 C-11 12.34 -11 11.68 -11 11 C-7.37 11 -3.74 11 0 11 C0 7.37 0 3.74 0 0 Z " fill="#FFFFFF" transform="translate(24,13)"/>
</svg>
