<?xml version="1.0" encoding="UTF-8"?>
<svg version="1.1" xmlns="http://www.w3.org/2000/svg" width="200" height="200">
<path d="M0 0 C-0.53109375 1.00417969 -1.0621875 2.00835938 -1.609375 3.04296875 C-12.67663899 24.33260751 -17.39680423 47.7126942 -10.390625 71.296875 C-1.31699354 95.45924191 14.42199331 113.64330637 38 124.375 C49.01764601 128.75771001 58.98709677 130.24676972 70.75 130.3125 C72.1875061 130.32095947 72.1875061 130.32095947 73.65405273 130.32958984 C79.25506305 130.27257965 84.37784566 129.68424808 89.81738281 128.32885742 C92.19104979 127.97121431 93.73502097 128.26423632 96 129 C80.2066857 149.61307234 60.97665442 162.77680948 34.875 166.75 C13.07966644 168.15615055 -8.13962602 164.15172993 -26 151 C-26.91265625 150.33226562 -27.8253125 149.66453125 -28.765625 148.9765625 C-46.20182609 135.48542367 -55.91732261 117.47673229 -60.609375 96.2421875 C-63.71714841 70.44766821 -58.62029766 48.01010127 -42.859375 27.33203125 C-42.24578125 26.56246094 -41.6321875 25.79289062 -41 25 C-40.36320312 24.1646875 -39.72640625 23.329375 -39.0703125 22.46875 C-33.59373968 15.93819525 -9.42147897 -4.71073948 0 0 Z " fill="#000000" transform="translate(81,17)"/>
<path d="M0 0 C1.859375 0.06640625 1.859375 0.06640625 4 1 C5.703125 3.65234375 5.703125 3.65234375 7.25 6.9375 C8.03117187 8.55978516 8.03117187 8.55978516 8.828125 10.21484375 C10 13 10 13 10 15 C15.28 15.66 20.56 16.32 26 17 C26.495 19.475 26.495 19.475 27 22 C24.875 24.04296875 24.875 24.04296875 22 26.1875 C18.27333089 29.58661444 18.27333089 29.58661444 16.62011719 34.21826172 C16.47702584 39.5414734 17.16535541 44.75202922 18 50 C13.23923252 49.53030187 10.23917073 48.7556616 6.3125 46.0625 C3.81158639 44.57020059 3.81158639 44.57020059 1 44 C-2.43588055 45.10530821 -5.17986908 46.60480489 -8.23828125 48.51171875 C-11.15672739 50.08445988 -12.74621682 50.3141175 -16 50 C-15.81179687 48.81664062 -15.62359375 47.63328125 -15.4296875 46.4140625 C-14.04228793 37.15833442 -14.04228793 37.15833442 -17.16015625 28.71875 C-19.87113643 26.10339397 -19.87113643 26.10339397 -22.77734375 23.9453125 C-23.51082031 23.30335937 -24.24429688 22.66140625 -25 22 C-25 20.68 -25 19.36 -25 18 C-23.865625 17.71125 -22.73125 17.4225 -21.5625 17.125 C-20.46808594 16.82916016 -20.46808594 16.82916016 -19.3515625 16.52734375 C-17 16 -17 16 -14.7109375 15.87890625 C-12.01217433 15.65169079 -10.37523434 15.3427085 -8 14 C-5.11488171 9.87994323 -3.09188975 5.57600883 -1 1 C-0.67 0.67 -0.34 0.34 0 0 Z " fill="#000000" transform="translate(118,31)"/>
<path d="M0 0 C1.32 0 2.64 0 4 0 C4.67154933 1.28913487 5.33708859 2.58140204 6 3.875 C6.37125 4.59429687 6.7425 5.31359375 7.125 6.0546875 C8 8 8 8 8 10 C13.94 10.99 13.94 10.99 20 12 C18.91515837 17.42420814 18.91515837 17.42420814 15.875 20.125 C13.63731975 22.52784236 13.02577417 23.56593953 12.828125 26.89453125 C13.09552556 29.63538699 13.46288997 32.29980141 14 35 C10.33687216 34.55327709 7.86374234 33.92815505 4.5625 32.1875 C1.27031834 30.66377778 1.27031834 30.66377778 -0.82421875 31.73046875 C-1.41847656 32.10816406 -2.01273438 32.48585937 -2.625 32.875 C-6 35 -6 35 -8.7109375 34.6328125 C-9.46632812 34.42398438 -10.22171875 34.21515625 -11 34 C-10.76990234 32.82244141 -10.76990234 32.82244141 -10.53515625 31.62109375 C-9.42040151 25.41497685 -9.42040151 25.41497685 -11.4921875 19.75 C-13.393296 17.92155347 -13.393296 17.92155347 -15.43359375 16.40234375 C-15.95050781 15.93957031 -16.46742188 15.47679688 -17 15 C-17 14.01 -17 13.02 -17 12 C-16.19175781 11.88785156 -15.38351563 11.77570313 -14.55078125 11.66015625 C-8.10863176 10.61289826 -8.10863176 10.61289826 -3.08984375 6.796875 C-1.88585677 4.56440935 -0.85989403 2.38470612 0 0 Z " fill="#000000" transform="translate(160,85)"/>
</svg>
