<?xml version="1.0" encoding="UTF-8"?>
<svg version="1.1" xmlns="http://www.w3.org/2000/svg" width="60" height="60">
<path d="M0 0 C-0.23783203 1.05767578 -0.23783203 1.05767578 -0.48046875 2.13671875 C-1.84995008 9.68431137 -1.98907798 16.68487003 2.02734375 23.37890625 C3 25 3 25 4 28 C5.69769234 29.10168984 5.69769234 29.10168984 8 30 C8.94875 30.53625 9.8975 31.0725 10.875 31.625 C16.50923244 34.08920276 22.99160308 33.22500238 29 33 C27.70281867 36.86493514 26.28771467 39.04965004 23.1875 41.6875 C22.52105469 42.26886719 21.85460938 42.85023437 21.16796875 43.44921875 C14.7022238 48.07426514 7.6631914 47.6776972 0 47 C-6.65959333 45.31914417 -11.18547447 40.53621678 -15 35 C-18.23701739 28.56912546 -18.12389015 20.45288124 -16.3828125 13.5546875 C-13.64768645 7.38250039 -7.08493331 0 0 0 Z " fill="#FFFFFF" transform="translate(23,7)"/>
</svg>
