<?xml version="1.0" encoding="UTF-8"?>
<svg version="1.1" xmlns="http://www.w3.org/2000/svg" width="512" height="512">
<path d="M0 0 C1.16088135 0.28206299 1.16088135 0.28206299 2.34521484 0.56982422 C20.46947455 5.11444709 38.01936355 12.7358461 53 24 C53.83144531 24.62261719 54.66289062 25.24523437 55.51953125 25.88671875 C66.22514634 34.19832227 75.85159677 43.14537526 84 54 C84.72703125 54.96164063 85.4540625 55.92328125 86.203125 56.9140625 C109.13980052 88.59233813 118.54242128 127.73436072 113.23120117 166.51342773 C112.63469652 170.04952692 111.86976491 173.52173467 111 177 C110.81195801 177.7739209 110.62391602 178.5478418 110.43017578 179.34521484 C105.88555291 197.46947455 98.2641539 215.01936355 87 230 C86.06607422 231.24716797 86.06607422 231.24716797 85.11328125 232.51953125 C76.80167773 243.22514634 67.85462474 252.85159677 57 261 C56.03835938 261.72703125 55.07671875 262.4540625 54.0859375 263.203125 C22.40766187 286.13980052 -16.73436072 295.54242128 -55.51342773 290.23120117 C-59.04952692 289.63469652 -62.52173467 288.86976491 -66 288 C-67.16088135 287.71793701 -67.16088135 287.71793701 -68.34521484 287.43017578 C-86.46947455 282.88555291 -104.01936355 275.2641539 -119 264 C-119.83144531 263.37738281 -120.66289062 262.75476563 -121.51953125 262.11328125 C-132.22514634 253.80167773 -141.85159677 244.85462474 -150 234 C-151.09054688 232.55753906 -151.09054688 232.55753906 -152.203125 231.0859375 C-175.13980052 199.40766187 -184.54242128 160.26563928 -179.23120117 121.48657227 C-178.63469652 117.95047308 -177.86976491 114.47826533 -177 111 C-176.81195801 110.2260791 -176.62391602 109.4521582 -176.43017578 108.65478516 C-171.88555291 90.53052545 -164.2641539 72.98063645 -153 58 C-152.06607422 56.75283203 -152.06607422 56.75283203 -151.11328125 55.48046875 C-142.80167773 44.77485366 -133.85462474 35.14840323 -123 27 C-121.55753906 25.90945312 -121.55753906 25.90945312 -120.0859375 24.796875 C-86.16016862 0.23290057 -41.05271203 -10.26552173 0 0 Z " fill="#FBDA32" transform="translate(289,112)"/>
<path d="M0 0 C7.56841113 5.21379433 11.47126846 13.24064869 15.75 21.125 C16.9246829 23.26492621 18.1004624 25.40425082 19.27734375 27.54296875 C19.85355469 28.59564941 20.42976563 29.64833008 21.0234375 30.73291016 C23.40069303 34.99107828 25.89903338 39.17329365 28.41967773 43.34790039 C31.1051632 48.34087925 31.44256357 52.59456526 29.8125 58.0625 C27.93039733 62.48021321 24.78286181 65.32969417 20.8125 67.9375 C15.72626375 69.63291208 10.82187775 69.64704246 5.8125 67.75 C0.48041338 64.69869032 -1.93419914 59.5863884 -4.83398438 54.35400391 C-6.49615135 51.38644822 -8.20837873 48.44993096 -9.921875 45.51171875 C-12.5891712 40.93137712 -15.2507133 36.34785873 -17.89453125 31.75390625 C-18.4563208 30.77881104 -19.01811035 29.80371582 -19.59692383 28.79907227 C-25.27295148 18.58744985 -25.27295148 18.58744985 -24.1875 11.9375 C-22.50722969 6.22035386 -19.61802664 2.6561888 -14.40234375 -0.21875 C-9.40188502 -2.12368666 -4.99475066 -1.66491689 0 0 Z " fill="#FBDA32" transform="translate(359.1875,413.0625)"/>
<path d="M0 0 C5.33208662 3.05130968 7.74669914 8.1636116 10.64648438 13.39599609 C12.30865135 16.36355178 14.02087873 19.30006904 15.734375 22.23828125 C18.4016712 26.81862288 21.0632133 31.40214127 23.70703125 35.99609375 C24.2688208 36.97118896 24.83061035 37.94628418 25.40942383 38.95092773 C31.08545148 49.16255015 31.08545148 49.16255015 30 55.8125 C28.31972969 61.52964614 25.43052664 65.0938112 20.21484375 67.96875 C15.21438502 69.87368666 10.80725066 69.41491689 5.8125 67.75 C-1.75591113 62.53620567 -5.65876846 54.50935131 -9.9375 46.625 C-11.1121829 44.48507379 -12.2879624 42.34574918 -13.46484375 40.20703125 C-14.04105469 39.15435059 -14.61726562 38.10166992 -15.2109375 37.01708984 C-17.58819303 32.75892172 -20.08653338 28.57670635 -22.60717773 24.40209961 C-25.2926632 19.40912075 -25.63006357 15.15543474 -24 9.6875 C-22.11789733 5.26978679 -18.97036181 2.42030583 -15 -0.1875 C-9.91376375 -1.88291208 -5.00937775 -1.89704246 0 0 Z " fill="#FBDA32" transform="translate(147,31.1875)"/>
<path d="M0 0 C4.73418773 2.00601175 7.56313362 4.66517241 10.04296875 9.1640625 C11.94790541 14.16452123 11.48913564 18.57165559 9.82421875 23.56640625 C4.61042442 31.13481738 -3.41642994 35.03767471 -11.30078125 39.31640625 C-13.44070746 40.49108915 -15.58003207 41.66686865 -17.71875 42.84375 C-18.77143066 43.41996094 -19.82411133 43.99617188 -20.90869141 44.58984375 C-25.16685953 46.96709928 -29.3490749 49.46543963 -33.52368164 51.98608398 C-38.5166605 54.67156945 -42.77034651 55.00896982 -48.23828125 53.37890625 C-52.65599446 51.49680358 -55.50547542 48.34926806 -58.11328125 44.37890625 C-59.80869333 39.29267 -59.82282371 34.388284 -57.92578125 29.37890625 C-54.87447157 24.04681963 -49.76216965 21.63220711 -44.52978516 18.73242188 C-41.56222947 17.0702549 -38.62571221 15.35802752 -35.6875 13.64453125 C-31.10715837 10.97723505 -26.52363998 8.31569295 -21.9296875 5.671875 C-20.95459229 5.11008545 -19.97949707 4.5482959 -18.97485352 3.96948242 C-12.47104086 0.35440355 -7.43371182 -2.18476928 0 0 Z " fill="#FBDA32" transform="translate(89.11328125,335.62109375)"/>
<path d="M0 0 C3.69465673 3.02290096 6.23041637 5.6912491 7.75 10.25 C8.27732416 16.4724251 7.86971936 21.33165892 3.75 26.25 C0.43188097 28.84101816 -3.15615818 30.85850529 -6.83349609 32.89648438 C-9.80105178 34.55865135 -12.73756904 36.27087873 -15.67578125 37.984375 C-20.25612288 40.6516712 -24.83964127 43.3132133 -29.43359375 45.95703125 C-30.40868896 46.5188208 -31.38378418 47.08061035 -32.38842773 47.65942383 C-42.60005015 53.33545148 -42.60005015 53.33545148 -49.25 52.25 C-54.96714614 50.56972969 -58.5313112 47.68052664 -61.40625 42.46484375 C-63.31118666 37.46438502 -62.85241689 33.05725066 -61.1875 28.0625 C-55.97370567 20.49408887 -47.94685131 16.59123154 -40.0625 12.3125 C-37.92257379 11.1378171 -35.78324918 9.9620376 -33.64453125 8.78515625 C-32.59217285 8.20910645 -31.53981445 7.63305664 -30.45556641 7.03955078 C-26.18914418 4.6577629 -21.99843884 2.15515707 -17.81518555 -0.36938477 C-11.75118442 -3.6331067 -5.99689038 -3.22909482 0 0 Z " fill="#FBDA32" transform="translate(474.25,124.75)"/>
<path d="M0 0 C4.45146251 2.18526342 7.18885145 4.9394521 10 9 C11.84886411 14.54659232 11.96262127 18.70541334 9.70703125 24.08203125 C8.01656886 27.29354936 6.25819971 30.43763286 4.421875 33.56689453 C2.77613874 36.38307028 1.16996817 39.22040776 -0.4375 42.05859375 C-1.66508963 44.2066312 -2.89426043 46.35376578 -4.125 48.5 C-4.71039551 49.52681885 -5.29579102 50.5536377 -5.89892578 51.61157227 C-15.05056146 67.35181864 -15.05056146 67.35181864 -23.62890625 69.6953125 C-28.97853324 70.38274397 -33.32917261 69.01702537 -37.875 66.25 C-41.59379985 62.31244722 -43.22153852 58.60969233 -43.8125 53.25 C-43.54724504 45.03814846 -38.73008011 38.42653411 -34.57519531 31.609375 C-32.88145668 28.80362818 -31.24608699 25.96884503 -29.6171875 23.125 C-28.47487502 21.14530411 -27.33165892 19.16612932 -26.1875 17.1875 C-25.64907471 16.25059326 -25.11064941 15.31368652 -24.5559082 14.34838867 C-18.28790761 3.68414282 -12.96395172 -1.52406399 0 0 Z " fill="#FBDA32" transform="translate(160,409)"/>
<path d="M0 0 C4.65021809 2.27656465 9.06568415 4.94686654 13.48388672 7.63964844 C16.28963354 9.33338707 19.12441669 10.96875676 21.96826172 12.59765625 C23.94795761 13.73996873 25.9271324 14.88318483 27.90576172 16.02734375 C28.84266846 16.56576904 29.7795752 17.10419434 30.74487305 17.65893555 C42.82504883 24.75916092 42.82504883 24.75916092 45.09326172 31.21484375 C45.77400007 36.45494595 45.75059429 40.87583295 43.40576172 45.65234375 C39.06098342 50.46682781 35.80814877 52.80761069 29.34326172 53.77734375 C22.58922067 53.63730781 17.19090905 49.9608058 11.52636719 46.63671875 C8.71019144 44.99098249 5.87285396 43.38481192 3.03466797 41.77734375 C0.88663052 40.54975412 -1.26050406 39.32058332 -3.40673828 38.08984375 C-4.43355713 37.50444824 -5.46037598 36.91905273 -6.51831055 36.31591797 C-22.25855693 27.16428229 -22.25855693 27.16428229 -24.60205078 18.5859375 C-25.28948226 13.23631051 -23.92376365 8.88567114 -21.15673828 4.33984375 C-15.21347027 -1.2732427 -7.73542193 -3.18529026 0 0 Z " fill="#FBDA32" transform="translate(57.90673828125,117.78515625)"/>
<path d="M0 0 C3.71879985 3.93755278 5.34653852 7.64030767 5.9375 13 C5.67224504 21.21185154 0.85508011 27.82346589 -3.29980469 34.640625 C-4.99354332 37.44637182 -6.62891301 40.28115497 -8.2578125 43.125 C-9.40012498 45.10469589 -10.54334108 47.08387068 -11.6875 49.0625 C-12.22592529 49.99940674 -12.76435059 50.93631348 -13.3190918 51.90161133 C-20.41931717 63.98178711 -20.41931717 63.98178711 -26.875 66.25 C-32.1151022 66.93073835 -36.5359892 66.90733258 -41.3125 64.5625 C-46.12698406 60.2177217 -48.46776694 56.96488705 -49.4375 50.5 C-49.29746406 43.74595895 -45.62096205 38.34764733 -42.296875 32.68310547 C-40.65113874 29.86692972 -39.04496817 27.02959224 -37.4375 24.19140625 C-36.20991037 22.0433688 -34.98073957 19.89623422 -33.75 17.75 C-33.16460449 16.72318115 -32.57920898 15.6963623 -31.97607422 14.63842773 C-22.82443854 -1.10181864 -22.82443854 -1.10181864 -14.24609375 -3.4453125 C-8.89646676 -4.13274397 -4.54582739 -2.76702537 0 0 Z " fill="#FBDA32" transform="translate(389.875,36.75)"/>
<path d="M0 0 C2.67584417 1.34752502 5.25755439 2.79782592 7.84130859 4.31445312 C8.78611084 4.85150879 9.73091309 5.38856445 10.7043457 5.94189453 C13.65742003 7.6301379 16.59280043 9.34674204 19.52880859 11.06445312 C21.42941281 12.15115607 23.33044428 13.23711216 25.23193359 14.32226562 C27.01973533 15.35901497 28.80624939 16.39798882 30.59130859 17.43945312 C31.41735596 17.91415039 32.24340332 18.38884766 33.09448242 18.87792969 C38.5925425 22.15512388 42.8413721 25.34442267 45.56005859 31.33789062 C46.82134768 36.99267002 46.50327666 41.01887396 43.52880859 46.06445312 C39.62941494 50.66373795 35.96915518 53.31382134 29.90380859 53.81445312 C21.59370647 53.6278326 15.02925997 48.83958392 8.13818359 44.63964844 C5.33243677 42.94590981 2.49765362 41.31054011 -0.34619141 39.68164062 C-2.32588729 38.53932814 -4.30506209 37.39611205 -6.28369141 36.25195312 C-7.22059814 35.71352783 -8.15750488 35.17510254 -9.12280273 34.62036133 C-21.20297852 27.52013596 -21.20297852 27.52013596 -23.47119141 21.06445312 C-24.15192976 15.82435092 -24.12852398 11.40346393 -21.78369141 6.62695312 C-15.70236001 -0.1118195 -8.89813904 -3.36866912 0 0 Z " fill="#FBDA32" transform="translate(432.47119140625,341.935546875)"/>
<path d="M0 0 C5.00230198 2.45567552 8.49851535 5.9970307 11 11 C11.11063733 12.66305862 11.15914915 14.33043122 11.17700195 15.99707031 C11.19625481 17.55944427 11.19625481 17.55944427 11.21589661 19.15338135 C11.22328354 20.28354675 11.23067047 21.41371216 11.23828125 22.578125 C11.246353 23.73745544 11.25442474 24.89678589 11.26274109 26.09124756 C11.27659135 28.54926046 11.28730927 31.00729267 11.29516602 33.46533203 C11.31236603 37.22074986 11.35624391 40.97528469 11.40039062 44.73046875 C11.41051841 47.11718102 11.41903425 49.50390078 11.42578125 51.890625 C11.44328934 53.01269348 11.46079742 54.13476196 11.47883606 55.29083252 C11.46154544 61.52128814 11.21932529 65.28669316 7 70 C1.75248668 74.62280935 -1.3475439 75.35331 -8.23828125 75.28125 C-13.36455419 74.75919674 -15.98532946 72.12436465 -19.3125 68.4375 C-21.75097437 64.91525924 -22.12877147 62.24968783 -22.16113281 58.07299805 C-22.17074036 57.07153244 -22.1803479 56.07006683 -22.19024658 55.03825378 C-22.19449646 53.95699722 -22.19874634 52.87574066 -22.203125 51.76171875 C-22.20882507 50.64819534 -22.21452515 49.53467194 -22.22039795 48.3874054 C-22.22984909 46.02952017 -22.23638238 43.67162173 -22.24023438 41.3137207 C-22.24993357 37.71216692 -22.280954 34.1111853 -22.3125 30.50976562 C-22.31903078 28.21875339 -22.32428096 25.92773707 -22.328125 23.63671875 C-22.3404718 22.56153488 -22.3528186 21.48635101 -22.36553955 20.37858582 C-22.346757 14.05167151 -21.99042828 9.20348678 -17.46484375 4.35546875 C-11.49668828 -0.20841484 -7.47227823 -0.76096751 0 0 Z " fill="#FBDA32" transform="translate(258,437)"/>
<path d="M0 0 C1.04158264 -0.01283524 2.08316528 -0.02567047 3.15631104 -0.03889465 C4.28647644 -0.04628159 5.41664185 -0.05366852 6.58105469 -0.0612793 C7.74038513 -0.06935104 8.89971558 -0.07742279 10.09417725 -0.08573914 C12.55219015 -0.09958939 15.01022235 -0.11030732 17.46826172 -0.11816406 C21.22367955 -0.13536408 24.97821438 -0.17924195 28.73339844 -0.22338867 C31.12011071 -0.23351646 33.50683047 -0.24203229 35.89355469 -0.2487793 C37.57665741 -0.27504143 37.57665741 -0.27504143 39.29376221 -0.30183411 C45.52421783 -0.28454349 49.28962285 -0.04232334 54.00292969 4.17700195 C58.62573904 9.42451527 59.35623969 12.52454585 59.28417969 19.4152832 C58.76212643 24.54155614 56.12729433 27.16233142 52.44042969 30.48950195 C48.91818892 32.92797633 46.25261751 33.30577342 42.07592773 33.33813477 C41.07446213 33.34774231 40.07299652 33.35734985 39.04118347 33.36724854 C37.95992691 33.37149841 36.87867035 33.37574829 35.76464844 33.38012695 C34.09436333 33.38867706 34.09436333 33.38867706 32.39033508 33.3973999 C30.03244986 33.40685105 27.67455141 33.41338434 25.31665039 33.41723633 C21.7150966 33.42693552 18.11411498 33.45795595 14.51269531 33.48950195 C12.22168308 33.49603273 9.93066676 33.50128291 7.63964844 33.50512695 C6.02687263 33.52364716 6.02687263 33.52364716 4.3815155 33.5425415 C-1.9453988 33.52375895 -6.79358353 33.16743023 -11.64160156 28.6418457 C-16.20548516 22.67369023 -16.75803783 18.64928019 -15.99707031 11.17700195 C-12.63081044 4.31980591 -7.6344196 0.08177883 0 0 Z " fill="#FBDA32" transform="translate(452.9970703125,242.822998046875)"/>
<path d="M0 0 C1.00146561 -0.00960754 2.00293121 -0.01921509 3.03474426 -0.02911377 C4.11600082 -0.03336365 5.19725739 -0.03761353 6.3112793 -0.04199219 C7.98156441 -0.0505423 7.98156441 -0.0505423 9.68559265 -0.05926514 C12.04347788 -0.06871628 14.40137632 -0.07524957 16.75927734 -0.07910156 C20.36083113 -0.08880076 23.96181275 -0.11982119 27.56323242 -0.15136719 C29.85424466 -0.15789797 32.14526098 -0.16314815 34.4362793 -0.16699219 C36.0490551 -0.18551239 36.0490551 -0.18551239 37.69441223 -0.20440674 C44.02132654 -0.18562419 48.86951127 0.17070454 53.7175293 4.69628906 C58.28141289 10.66444453 58.83396556 14.68885458 58.07299805 22.16113281 C55.61732253 27.16343479 52.07596734 30.65964816 47.07299805 33.16113281 C45.40993942 33.27177014 43.74256683 33.32028196 42.07592773 33.33813477 C41.03434509 33.35097 39.99276245 33.36380524 38.9196167 33.37702942 C37.78945129 33.38441635 36.65928589 33.39180328 35.49487305 33.39941406 C34.3355426 33.40748581 33.17621216 33.41555756 31.98175049 33.4238739 C29.52373759 33.43772416 27.06570538 33.44844208 24.60766602 33.45629883 C20.85224818 33.47349885 17.09771336 33.51737672 13.3425293 33.56152344 C10.95581703 33.57165123 8.56909727 33.58016706 6.18237305 33.58691406 C5.06030457 33.60442215 3.93823608 33.62193024 2.78216553 33.63996887 C-3.4482901 33.62267825 -7.21369511 33.38045811 -11.92700195 29.16113281 C-16.54981131 23.91361949 -17.28031195 20.81358892 -17.20825195 13.92285156 C-16.6861987 8.79657862 -14.0513666 6.17580335 -10.36450195 2.84863281 C-6.84226119 0.41015844 -4.17668978 0.03236134 0 0 Z " fill="#FBDA32" transform="translate(16.927001953125,235.8388671875)"/>
<path d="M0 0 C4.45146251 2.18526342 7.18885145 4.9394521 10 9 C10.97809102 11.93427306 11.13743228 13.86811203 11.16113281 16.92700195 C11.17074036 17.92846756 11.1803479 18.92993317 11.19024658 19.96174622 C11.19449646 21.04300278 11.19874634 22.12425934 11.203125 23.23828125 C11.20882507 24.35180466 11.21452515 25.46532806 11.22039795 26.6125946 C11.22984909 28.97047983 11.23638238 31.32837827 11.24023438 33.6862793 C11.24993357 37.28783308 11.280954 40.8888147 11.3125 44.49023438 C11.31903078 46.78124661 11.32428096 49.07226293 11.328125 51.36328125 C11.3404718 52.43846512 11.3528186 53.51364899 11.36553955 54.62141418 C11.346757 60.94832849 10.99042828 65.79651322 6.46484375 70.64453125 C0.49668828 75.20841484 -3.52772177 75.76096751 -11 75 C-16.00230198 72.54432448 -19.49851535 69.0029693 -22 64 C-22.11063733 62.33694138 -22.15914915 60.66956878 -22.17700195 59.00292969 C-22.18983719 57.96134705 -22.20267242 56.9197644 -22.21589661 55.84661865 C-22.22328354 54.71645325 -22.23067047 53.58628784 -22.23828125 52.421875 C-22.246353 51.26254456 -22.25442474 50.10321411 -22.26274109 48.90875244 C-22.27659135 46.45073954 -22.28730927 43.99270733 -22.29516602 41.53466797 C-22.31236603 37.77925014 -22.35624391 34.02471531 -22.40039062 30.26953125 C-22.41051841 27.88281898 -22.41903425 25.49609922 -22.42578125 23.109375 C-22.44328934 21.98730652 -22.46079742 20.86523804 -22.47883606 19.70916748 C-22.46154544 13.47871186 -22.21932529 9.71330684 -18 5 C-12.09652224 -0.20068279 -7.76521275 -0.7907996 0 0 Z " fill="#FBDA32" transform="translate(265,0)"/>
</svg>
